<svg xmlns="http://www.w3.org/2000/svg" xmlns:xlink="http://www.w3.org/1999/xlink" width="55.588" height="56.033" viewBox="0 0 55.588 56.033">
  <defs>
    <filter id="Ellipse_429" x="0" y="0" width="55.588" height="56.033" filterUnits="userSpaceOnUse">
      <feOffset dy="3" input="SourceAlpha"/>
      <feGaussianBlur stdDeviation="3" result="blur"/>
      <feFlood flood-opacity="0.161"/>
      <feComposite operator="in" in2="blur"/>
      <feComposite in="SourceGraphic"/>
    </filter>
  </defs>
  <g id="Component_39_9" data-name="Component 39 – 9" transform="translate(9 6)">
    <g transform="matrix(1, 0, 0, 1, -9, -6)" filter="url(#Ellipse_429)">
      <ellipse id="Ellipse_429-2" data-name="Ellipse 429" cx="18.794" cy="19.016" rx="18.794" ry="19.016" transform="translate(9 6)" fill="#f7f7f7"/>
    </g>
    <path id="Path_548" data-name="Path 548" d="M500,578.085a4.049,4.049,0,0,1,2.285-3.611.86.86,0,0,1,.107-.036,1.231,1.231,0,0,1,.409-.042,4.285,4.285,0,0,1,.848.116l.067.022c.1.033.433.185.632.809l.955,2.742s.281.743-.2,1.14c-.015.013-.03.026-.045.04l-.892.891a.816.816,0,0,0-.219.385.488.488,0,0,0,.044.379.9.9,0,0,1,.061.113,11.061,11.061,0,0,0,4.932,4.9.683.683,0,0,0,.8-.17l.7-.68a.8.8,0,0,0,.083-.094,1.054,1.054,0,0,1,1.267-.35l2.9.988.066.022a1.018,1.018,0,0,1,.694.817c.007.046.013.092.021.138a2.573,2.573,0,0,1-.013,1.034,3.8,3.8,0,0,1-3.768,2.3,7.961,7.961,0,0,1-4.156-1.454q-.087-.06-.178-.114a18.149,18.149,0,0,1-6.39-6.761A8.519,8.519,0,0,1,500,578.085Z" transform="translate(-488.986 -563.151)" fill="#f39562"/>
  </g>
</svg>
