<svg xmlns="http://www.w3.org/2000/svg" width="45.5" height="25.419" viewBox="0 0 45.5 25.419">
  <defs>
    <style>
      .cls-1, .cls-5 {
        fill: #f39562;
      }

      .cls-2 {
        fill: #f7f7f7;
      }

      .cls-2, .cls-3, .cls-5, .cls-7 {
        stroke: #f39562;
      }

      .cls-3, .cls-4 {
        fill: #fff;
      }

      .cls-10, .cls-6, .cls-7 {
        fill: none;
      }

      .cls-6 {
        stroke: #f7f7f7;
        stroke-width: 2px;
      }

      .cls-7 {
        stroke-width: 1.5px;
      }

      .cls-11, .cls-8, .cls-9 {
        stroke: none;
      }

      .cls-9 {
        fill: #f39562;
      }

      .cls-11 {
        fill: #fff;
      }
    </style>
  </defs>
  <g id="Group_510" data-name="Group 510" transform="translate(-524.5 -1359.351)">
    <g id="Path_423" data-name="Path 423" class="cls-1" transform="translate(553.554 1364.497)">
      <path class="cls-8" d="M 14.6842794418335 15.87779712677002 L 0.4999997317790985 15.87779712677002 L 0.4999997317790985 0.4999971389770508 L 10.57828140258789 0.4999971389770508 L 14.6842794418335 5.214690208435059 L 14.6842794418335 15.87779712677002 Z"/>
      <path class="cls-9" d="M 1 0.9999971389770508 L 1 15.37779712677002 L 14.1842794418335 15.37779712677002 L 14.1842794418335 5.401905059814453 L 10.35068416595459 0.9999971389770508 L 1 0.9999971389770508 M 0 -3.814697265625e-06 L 10.80585956573486 -3.814697265625e-06 L 15.1842794418335 5.027497291564941 L 15.1842794418335 16.37779808044434 L 0 16.37779808044434 L 0 -3.814697265625e-06 Z"/>
    </g>
    <g id="Path_424" data-name="Path 424" class="cls-1" transform="translate(531.468 1359.351)">
      <path class="cls-8" d="M 22.04927635192871 21.02425956726074 L 0.4999972283840179 21.02425956726074 L 0.4999972283840179 4.705829620361328 L 0.4999972283840179 0.4999997913837433 L 6.502137184143066 0.4999997913837433 L 22.04927635192871 0.4999997913837433 L 22.04927635192871 21.02425956726074 Z"/>
      <path class="cls-9" d="M 0.9999980926513672 1 L 0.9999980926513672 20.52425956726074 L 21.54927635192871 20.52425956726074 L 21.54927635192871 1 L 0.9999980926513672 1 M -1.9073486328125e-06 0 L 22.54927635192871 0 L 22.54927635192871 21.52425956726074 L -1.9073486328125e-06 21.52425956726074 L -1.9073486328125e-06 0 Z"/>
    </g>
    <g id="Ellipse_374" data-name="Ellipse 374" class="cls-2" transform="translate(535.352 1377.975)">
      <ellipse class="cls-8" cx="3.398" cy="3.398" rx="3.398" ry="3.398"/>
      <ellipse class="cls-10" cx="3.398" cy="3.398" rx="2.898" ry="2.898"/>
    </g>
    <g id="Ellipse_375" data-name="Ellipse 375" class="cls-3" transform="translate(557.678 1377.975)">
      <ellipse class="cls-8" cx="3.398" cy="3.398" rx="3.398" ry="3.398"/>
      <ellipse class="cls-10" cx="3.398" cy="3.398" rx="2.898" ry="2.898"/>
    </g>
    <g id="Path_425" data-name="Path 425" class="cls-4" transform="translate(556.442 1366.664)">
      <path class="cls-8" d="M 10.21419620513916 5.927981376647949 L 0.4999961853027344 5.927981376647949 L 0.4999961853027344 0.5000014305114746 L 7.272415637969971 0.5000014305114746 L 10.21419620513916 4.113228797912598 L 10.21419620513916 5.927981376647949 Z"/>
      <path class="cls-11" d="M 0.9999961853027344 1.000001430511475 L 0.9999961853027344 5.427981376647949 L 9.71419620513916 5.427981376647949 L 9.71419620513916 4.29102611541748 L 7.034743309020996 1.000001430511475 L 0.9999961853027344 1.000001430511475 M -3.814697265625e-06 1.430511474609375e-06 L 7.510096549987793 1.430511474609375e-06 L 10.71419620513916 3.935421466827393 L 10.71419620513916 6.427981376647949 L -3.814697265625e-06 6.427981376647949 L -3.814697265625e-06 1.430511474609375e-06 Z"/>
    </g>
    <g id="Rectangle_1425" data-name="Rectangle 1425" class="cls-5" transform="translate(566 1377.88)">
      <rect class="cls-8" width="4" height="3"/>
      <rect class="cls-10" x="0.5" y="0.5" width="3" height="2"/>
    </g>
    <line id="Line_13" data-name="Line 13" class="cls-6" x2="16" transform="translate(528.5 1367.5)"/>
    <line id="Line_14" data-name="Line 14" class="cls-6" x2="16" transform="translate(526.743 1370.992)"/>
    <line id="Line_15" data-name="Line 15" class="cls-6" x2="16" transform="translate(524.5 1374.379)"/>
    <line id="Line_16" data-name="Line 16" class="cls-7" x1="18" transform="translate(526.5 1365.806)"/>
    <line id="Line_17" data-name="Line 17" class="cls-7" x2="15" transform="translate(528.5 1372.686)"/>
  </g>
</svg>
