<svg id="Group_591" data-name="Group 591" xmlns="http://www.w3.org/2000/svg" width="21.723" height="11.827" viewBox="0 0 21.723 11.827">
  <defs>
    <style>
      .cls-1, .cls-4 {
        fill: #818cc4;
      }

      .cls-2, .cls-3 {
        fill: #fff;
      }

      .cls-2, .cls-4, .cls-6 {
        stroke: #818cc4;
      }

      .cls-5, .cls-6, .cls-9 {
        fill: none;
      }

      .cls-5 {
        stroke: #fff;
        stroke-width: 1.5px;
      }

      .cls-10, .cls-7, .cls-8 {
        stroke: none;
      }

      .cls-8 {
        fill: #818cc4;
      }

      .cls-10 {
        fill: #fff;
      }
    </style>
  </defs>
  <g id="Path_423" data-name="Path 423" class="cls-1" transform="translate(13.871 2.394)">
    <path class="cls-7" d="M 6.749456405639648 7.120139122009277 L 0.4999963045120239 7.120139122009277 L 0.4999963045120239 0.4999993145465851 L 4.935324668884277 0.4999993145465851 L 6.749456405639648 2.530014753341675 L 6.749456405639648 7.120139122009277 Z"/>
    <path class="cls-8" d="M 0.9999961853027344 0.9999995231628418 L 0.9999961853027344 6.620139122009277 L 6.249456405639648 6.620139122009277 L 6.249456405639648 2.720880031585693 L 4.711584091186523 0.9999995231628418 L 0.9999961853027344 0.9999995231628418 M -3.814697265625e-06 -4.76837158203125e-07 L 5.159056186676025 -4.76837158203125e-07 L 7.249456405639648 2.339159488677979 L 7.249456405639648 7.620139122009277 L -3.814697265625e-06 7.620139122009277 L -3.814697265625e-06 -4.76837158203125e-07 Z"/>
  </g>
  <g id="Path_424" data-name="Path 424" class="cls-1" transform="translate(3.327)">
    <path class="cls-7" d="M 10.26573657989502 9.514643669128418 L 0.4999968707561493 9.514643669128418 L 0.4999968707561493 2.189493656158447 L 0.4999968707561493 0.5000037550926208 L 3.104326963424683 0.5000037550926208 L 10.26573657989502 0.5000037550926208 L 10.26573657989502 9.514643669128418 Z"/>
    <path class="cls-8" d="M 0.9999971389770508 1.000003814697266 L 0.9999971389770508 9.014643669128418 L 9.76573657989502 9.014643669128418 L 9.76573657989502 1.000003814697266 L 0.9999971389770508 1.000003814697266 M -2.86102294921875e-06 3.814697265625e-06 L 10.76573657989502 3.814697265625e-06 L 10.76573657989502 10.01464366912842 L -2.86102294921875e-06 10.01464366912842 L -2.86102294921875e-06 3.814697265625e-06 Z"/>
  </g>
  <g id="Ellipse_374" data-name="Ellipse 374" class="cls-2" transform="translate(5.181 8.665)">
    <ellipse class="cls-7" cx="1.622" cy="1.581" rx="1.622" ry="1.581"/>
    <ellipse class="cls-9" cx="1.622" cy="1.581" rx="1.122" ry="1.081"/>
  </g>
  <g id="Ellipse_375" data-name="Ellipse 375" class="cls-2" transform="translate(15.84 8.665)">
    <ellipse class="cls-7" cx="1.622" cy="1.581" rx="1.622" ry="1.581"/>
    <ellipse class="cls-9" cx="1.622" cy="1.581" rx="1.122" ry="1.081"/>
  </g>
  <g id="Path_425" data-name="Path 425" class="cls-3" transform="translate(15.25 3.403)">
    <path class="cls-7" d="M 4.615295886993408 2.490761995315552 L 0.4999960362911224 2.490761995315552 L 0.4999960362911224 0.5000020861625671 L 3.351750612258911 0.5000020861625671 L 4.615295886993408 2.012417316436768 L 4.615295886993408 2.490761995315552 Z"/>
    <path class="cls-10" d="M 0.9999961853027344 1.000002026557922 L 0.9999961853027344 1.990762114524841 L 3.945674419403076 1.990762114524841 L 3.117945194244385 1.000002026557922 L 0.9999961853027344 1.000002026557922 M -3.814697265625e-06 2.145767211914062e-06 L 3.585556030273438 2.145767211914062e-06 L 5.115295886993408 1.831042051315308 L 5.115295886993408 2.990761995315552 L -3.814697265625e-06 2.990761995315552 L -3.814697265625e-06 2.145767211914062e-06 Z"/>
  </g>
  <g id="Rectangle_1425" data-name="Rectangle 1425" class="cls-4" transform="translate(19.813 8.621)">
    <rect class="cls-7" width="1.91" height="1.396"/>
    <rect class="cls-9" x="0.5" y="0.5" width="0.91" height="0.396"/>
  </g>
  <line id="Line_13" data-name="Line 13" class="cls-5" x2="7.639" transform="translate(1.91 2.216)"/>
  <line id="Line_14" data-name="Line 14" class="cls-5" x2="7.639" transform="translate(1.071 3.845)"/>
  <line id="Line_15" data-name="Line 15" class="cls-5" x2="7.639" transform="translate(0 5.849)"/>
  <line id="Line_16" data-name="Line 16" class="cls-6" x1="8.594" transform="translate(0.955 3.004)"/>
  <line id="Line_17" data-name="Line 17" class="cls-6" x2="7.161" transform="translate(1.91 5.007)"/>
</svg>
