<svg xmlns="http://www.w3.org/2000/svg" xmlns:xlink="http://www.w3.org/1999/xlink" width="667.697" height="265.64" viewBox="0 0 667.697 265.64">
  <defs>
    <style>
      .cls-1 {
        stroke: rgba(0,0,0,0);
        stroke-miterlimit: 10;
        fill: url(#linear-gradient);
      }
    </style>
    <linearGradient id="linear-gradient" x1="0.99" y1="0.415" x2="0.009" y2="0.413" gradientUnits="objectBoundingBox">
      <stop offset="0" stop-color="#ededff"/>
      <stop offset="1" stop-color="#818cc4"/>
    </linearGradient>
  </defs>
  <g id="Group_2067" data-name="Group 2067" transform="translate(-811.5 -118.293)">
    <path id="Union_291" data-name="Union 291" class="cls-1" d="M657.123,119.883a4.787,4.787,0,1,1,4.781,4.78A4.784,4.784,0,0,1,657.123,119.883Zm-28.693,0a4.771,4.771,0,1,1,4.762,4.78A4.762,4.762,0,0,1,628.43,119.883Zm-28.744,0a4.787,4.787,0,1,1,4.785,4.78A4.784,4.784,0,0,1,599.686,119.883Zm-28.721,0a4.784,4.784,0,1,1,4.789,4.78A4.785,4.785,0,0,1,570.965,119.883Zm-28.721,0a4.8,4.8,0,1,1,4.789,4.78A4.785,4.785,0,0,1,542.244,119.883Zm-28.717,0a4.784,4.784,0,1,1,4.807,4.78A4.791,4.791,0,0,1,513.527,119.883Zm-28.7,0a4.778,4.778,0,1,1,4.768,4.78A4.767,4.767,0,0,1,484.828,119.883Zm-28.738,0a4.784,4.784,0,1,1,4.779,4.78A4.786,4.786,0,0,1,456.09,119.883Zm-25.055,0a4.787,4.787,0,1,1,4.781,4.78A4.784,4.784,0,0,1,431.035,119.883Zm-28.693,0a4.771,4.771,0,1,1,4.762,4.78A4.762,4.762,0,0,1,402.342,119.883Zm-28.744,0a4.787,4.787,0,1,1,4.785,4.78A4.784,4.784,0,0,1,373.6,119.883Zm-28.721,0a4.784,4.784,0,1,1,4.793,4.78A4.786,4.786,0,0,1,344.877,119.883Zm-28.721,0a4.8,4.8,0,1,1,4.789,4.78A4.784,4.784,0,0,1,316.156,119.883Zm-28.717,0a4.784,4.784,0,1,1,4.811,4.78A4.792,4.792,0,0,1,287.439,119.883Zm-28.7,0a4.775,4.775,0,1,1,4.762,4.78A4.762,4.762,0,0,1,258.744,119.883Zm-28.744,0a4.787,4.787,0,1,1,4.785,4.78A4.788,4.788,0,0,1,230,119.883Zm-28.961,0a4.785,4.785,0,1,1,4.775,4.78A4.782,4.782,0,0,1,201.039,119.883Zm-28.7,0a4.771,4.771,0,1,1,4.764,4.78A4.764,4.764,0,0,1,172.34,119.883Zm-28.742,0a4.786,4.786,0,1,1,4.783,4.78A4.786,4.786,0,0,1,143.6,119.883Zm-28.723,0a4.787,4.787,0,1,1,4.795,4.78A4.786,4.786,0,0,1,114.875,119.883Zm-28.721,0a4.8,4.8,0,1,1,4.789,4.78A4.785,4.785,0,0,1,86.154,119.883Zm-28.717,0a4.787,4.787,0,1,1,4.813,4.78A4.793,4.793,0,0,1,57.438,119.883Zm-28.693,0a4.775,4.775,0,1,1,4.762,4.78A4.762,4.762,0,0,1,28.744,119.883ZM0,119.883a4.787,4.787,0,1,1,4.785,4.78A4.787,4.787,0,0,1,0,119.883Zm657.123-28.8a4.787,4.787,0,1,1,4.781,4.789A4.793,4.793,0,0,1,657.123,91.086Zm-28.693,0a4.772,4.772,0,1,1,4.762,4.789A4.771,4.771,0,0,1,628.43,91.086Zm-28.744,0a4.787,4.787,0,1,1,4.785,4.789A4.794,4.794,0,0,1,599.686,91.086Zm-28.721,0a4.784,4.784,0,1,1,4.789,4.789A4.795,4.795,0,0,1,570.965,91.086Zm-28.721,0a4.8,4.8,0,1,1,4.789,4.789A4.795,4.795,0,0,1,542.244,91.086Zm-28.717,0a4.784,4.784,0,1,1,4.807,4.789A4.8,4.8,0,0,1,513.527,91.086Zm-28.7,0a4.778,4.778,0,1,1,4.768,4.789A4.776,4.776,0,0,1,484.828,91.086Zm-28.738,0a4.784,4.784,0,1,1,4.779,4.789A4.8,4.8,0,0,1,456.09,91.086Zm-25.055,0a4.787,4.787,0,1,1,4.781,4.789A4.793,4.793,0,0,1,431.035,91.086Zm-28.693,0a4.771,4.771,0,1,1,4.762,4.789A4.771,4.771,0,0,1,402.342,91.086Zm-28.744,0a4.787,4.787,0,1,1,4.785,4.789A4.794,4.794,0,0,1,373.6,91.086Zm-28.721,0a4.784,4.784,0,1,1,4.793,4.789A4.8,4.8,0,0,1,344.877,91.086Zm-28.721,0a4.8,4.8,0,1,1,4.789,4.789A4.793,4.793,0,0,1,316.156,91.086Zm-28.717,0a4.784,4.784,0,1,1,4.811,4.789A4.8,4.8,0,0,1,287.439,91.086Zm-28.7,0a4.775,4.775,0,1,1,4.762,4.789A4.771,4.771,0,0,1,258.744,91.086Zm-28.744,0a4.787,4.787,0,1,1,4.785,4.789A4.8,4.8,0,0,1,230,91.086Zm-28.961,0a4.785,4.785,0,1,1,4.775,4.789A4.792,4.792,0,0,1,201.039,91.086Zm-28.7,0a4.772,4.772,0,1,1,4.764,4.789A4.773,4.773,0,0,1,172.34,91.086Zm-28.742,0a4.786,4.786,0,1,1,4.783,4.789A4.8,4.8,0,0,1,143.6,91.086Zm-28.723,0a4.787,4.787,0,1,1,4.795,4.789A4.8,4.8,0,0,1,114.875,91.086Zm-28.721,0a4.8,4.8,0,1,1,4.789,4.789A4.795,4.795,0,0,1,86.154,91.086Zm-28.717,0a4.787,4.787,0,1,1,4.813,4.789A4.8,4.8,0,0,1,57.438,91.086Zm-28.693,0a4.775,4.775,0,1,1,4.762,4.789A4.771,4.771,0,0,1,28.744,91.086ZM0,91.086a4.787,4.787,0,1,1,4.785,4.789A4.8,4.8,0,0,1,0,91.086ZM657.123,62.329a4.787,4.787,0,1,1,9.574,0,4.787,4.787,0,0,1-9.574,0Zm-28.693,0a4.771,4.771,0,1,1,4.762,4.763A4.794,4.794,0,0,1,628.43,62.329Zm-28.744,0a4.787,4.787,0,1,1,9.574,0,4.787,4.787,0,0,1-9.574,0Zm-28.721,0a4.784,4.784,0,1,1,9.568,0,4.784,4.784,0,0,1-9.568,0Zm-28.721,0a4.8,4.8,0,1,1,4.789,4.763A4.818,4.818,0,0,1,542.244,62.329Zm-28.717,0a4.784,4.784,0,1,1,9.568,0,4.784,4.784,0,0,1-9.568,0Zm-28.7,0a4.778,4.778,0,1,1,4.768,4.763A4.8,4.8,0,0,1,484.828,62.329Zm-28.738,0a4.784,4.784,0,1,1,9.568,0,4.784,4.784,0,0,1-9.568,0Zm-25.055,0a4.787,4.787,0,1,1,4.781,4.763A4.816,4.816,0,0,1,431.035,62.329Zm-28.693,0a4.771,4.771,0,1,1,4.762,4.763A4.794,4.794,0,0,1,402.342,62.329Zm-28.744,0a4.787,4.787,0,1,1,9.574,0,4.787,4.787,0,0,1-9.574,0Zm-28.721,0a4.784,4.784,0,1,1,9.568,0,4.784,4.784,0,0,1-9.568,0Zm-28.721,0a4.8,4.8,0,1,1,4.789,4.763A4.816,4.816,0,0,1,316.156,62.329Zm-28.717,0a4.784,4.784,0,1,1,9.568,0,4.784,4.784,0,0,1-9.568,0Zm-28.7,0a4.775,4.775,0,1,1,4.762,4.763A4.794,4.794,0,0,1,258.744,62.329Zm-28.744,0a4.787,4.787,0,1,1,9.574,0,4.787,4.787,0,0,1-9.574,0Zm-28.961,0a4.785,4.785,0,1,1,4.775,4.763A4.815,4.815,0,0,1,201.039,62.329Zm-28.7,0a4.771,4.771,0,1,1,4.764,4.763A4.8,4.8,0,0,1,172.34,62.329Zm-28.742,0a4.786,4.786,0,1,1,9.572,0,4.786,4.786,0,0,1-9.572,0Zm-28.723,0a4.787,4.787,0,1,1,9.574,0,4.787,4.787,0,0,1-9.574,0Zm-28.721,0a4.8,4.8,0,1,1,4.789,4.763A4.818,4.818,0,0,1,86.154,62.329Zm-28.717,0a4.787,4.787,0,1,1,9.574,0,4.787,4.787,0,0,1-9.574,0Zm-28.693,0a4.775,4.775,0,1,1,4.762,4.763A4.794,4.794,0,0,1,28.744,62.329ZM0,62.329a4.787,4.787,0,1,1,9.574,0,4.787,4.787,0,0,1-9.574,0ZM657.123,33.56a4.787,4.787,0,1,1,4.781,4.789A4.783,4.783,0,0,1,657.123,33.56Zm-28.693,0a4.772,4.772,0,1,1,4.762,4.789A4.761,4.761,0,0,1,628.43,33.56Zm-28.744,0a4.787,4.787,0,1,1,4.785,4.789A4.784,4.784,0,0,1,599.686,33.56Zm-28.721,0a4.784,4.784,0,1,1,4.789,4.789A4.785,4.785,0,0,1,570.965,33.56Zm-28.721,0a4.8,4.8,0,1,1,4.789,4.789A4.785,4.785,0,0,1,542.244,33.56Zm-28.717,0a4.784,4.784,0,1,1,4.807,4.789A4.791,4.791,0,0,1,513.527,33.56Zm-28.7,0a4.778,4.778,0,1,1,4.768,4.789A4.766,4.766,0,0,1,484.828,33.56Zm-28.738,0a4.784,4.784,0,1,1,4.779,4.789A4.785,4.785,0,0,1,456.09,33.56Zm-25.055,0a4.787,4.787,0,1,1,4.781,4.789A4.783,4.783,0,0,1,431.035,33.56Zm-28.693,0a4.771,4.771,0,1,1,4.762,4.789A4.761,4.761,0,0,1,402.342,33.56Zm-28.744,0a4.787,4.787,0,1,1,4.785,4.789A4.784,4.784,0,0,1,373.6,33.56Zm-28.721,0a4.784,4.784,0,1,1,4.793,4.789A4.785,4.785,0,0,1,344.877,33.56Zm-28.721,0a4.8,4.8,0,1,1,4.789,4.789A4.783,4.783,0,0,1,316.156,33.56Zm-28.717,0a4.784,4.784,0,1,1,4.811,4.789A4.792,4.792,0,0,1,287.439,33.56Zm-28.7,0a4.775,4.775,0,1,1,4.762,4.789A4.761,4.761,0,0,1,258.744,33.56ZM230,33.56a4.787,4.787,0,1,1,4.785,4.789A4.787,4.787,0,0,1,230,33.56Zm-28.961,0a4.785,4.785,0,1,1,4.775,4.789A4.782,4.782,0,0,1,201.039,33.56Zm-28.7,0a4.772,4.772,0,1,1,4.764,4.789A4.763,4.763,0,0,1,172.34,33.56Zm-28.742,0a4.786,4.786,0,1,1,4.783,4.789A4.786,4.786,0,0,1,143.6,33.56Zm-28.723,0a4.787,4.787,0,1,1,4.795,4.789A4.786,4.786,0,0,1,114.875,33.56Zm-28.721,0a4.8,4.8,0,1,1,4.789,4.789A4.785,4.785,0,0,1,86.154,33.56Zm-28.717,0a4.787,4.787,0,1,1,4.813,4.789A4.792,4.792,0,0,1,57.438,33.56Zm-28.693,0a4.775,4.775,0,1,1,4.762,4.789A4.761,4.761,0,0,1,28.744,33.56ZM0,33.56a4.787,4.787,0,1,1,4.785,4.789A4.786,4.786,0,0,1,0,33.56ZM657.123,4.789A4.787,4.787,0,1,1,661.9,9.573,4.8,4.8,0,0,1,657.123,4.789Zm-28.693,0a4.772,4.772,0,1,1,4.762,4.784A4.779,4.779,0,0,1,628.43,4.789Zm-28.744,0a4.787,4.787,0,1,1,4.785,4.784A4.8,4.8,0,0,1,599.686,4.789Zm-28.721,0a4.784,4.784,0,1,1,4.789,4.784A4.8,4.8,0,0,1,570.965,4.789Zm-28.721,0a4.8,4.8,0,1,1,4.789,4.784A4.8,4.8,0,0,1,542.244,4.789Zm-28.717,0a4.784,4.784,0,1,1,4.807,4.784A4.808,4.808,0,0,1,513.527,4.789Zm-28.7,0A4.778,4.778,0,1,1,489.6,9.573,4.784,4.784,0,0,1,484.828,4.789Zm-28.738,0a4.784,4.784,0,1,1,4.779,4.784A4.8,4.8,0,0,1,456.09,4.789Zm-25.055,0a4.787,4.787,0,1,1,4.781,4.784A4.8,4.8,0,0,1,431.035,4.789Zm-28.693,0A4.771,4.771,0,1,1,407.1,9.573,4.779,4.779,0,0,1,402.342,4.789Zm-28.744,0a4.787,4.787,0,1,1,4.785,4.784A4.8,4.8,0,0,1,373.6,4.789Zm-28.721,0a4.784,4.784,0,1,1,4.793,4.784A4.8,4.8,0,0,1,344.877,4.789Zm-28.721,0a4.8,4.8,0,1,1,4.789,4.784A4.8,4.8,0,0,1,316.156,4.789Zm-28.717,0a4.784,4.784,0,1,1,4.811,4.784A4.809,4.809,0,0,1,287.439,4.789Zm-28.7,0a4.775,4.775,0,1,1,4.762,4.784A4.779,4.779,0,0,1,258.744,4.789ZM230,4.789a4.787,4.787,0,1,1,4.785,4.784A4.805,4.805,0,0,1,230,4.789Zm-28.961,0a4.785,4.785,0,1,1,4.775,4.784A4.8,4.8,0,0,1,201.039,4.789Zm-28.7,0A4.772,4.772,0,1,1,177.1,9.573,4.78,4.78,0,0,1,172.34,4.789Zm-28.742,0a4.786,4.786,0,1,1,4.783,4.784A4.8,4.8,0,0,1,143.6,4.789Zm-28.723,0a4.787,4.787,0,1,1,4.795,4.784A4.8,4.8,0,0,1,114.875,4.789Zm-28.721,0a4.8,4.8,0,1,1,4.789,4.784A4.8,4.8,0,0,1,86.154,4.789Zm-28.717,0A4.787,4.787,0,1,1,62.25,9.573,4.81,4.81,0,0,1,57.438,4.789Zm-28.693,0a4.775,4.775,0,1,1,4.762,4.784A4.779,4.779,0,0,1,28.744,4.789ZM0,4.789A4.787,4.787,0,1,1,4.785,9.573,4.8,4.8,0,0,1,0,4.789Z" transform="translate(1478.697 383.433) rotate(180)"/>
    <path id="Union_292" data-name="Union 292" class="cls-1" d="M657.123,119.883a4.787,4.787,0,1,1,4.781,4.78A4.784,4.784,0,0,1,657.123,119.883Zm-28.693,0a4.771,4.771,0,1,1,4.762,4.78A4.762,4.762,0,0,1,628.43,119.883Zm-28.744,0a4.787,4.787,0,1,1,4.785,4.78A4.784,4.784,0,0,1,599.686,119.883Zm-28.721,0a4.784,4.784,0,1,1,4.789,4.78A4.785,4.785,0,0,1,570.965,119.883Zm-28.721,0a4.8,4.8,0,1,1,4.789,4.78A4.785,4.785,0,0,1,542.244,119.883Zm-28.717,0a4.784,4.784,0,1,1,4.807,4.78A4.791,4.791,0,0,1,513.527,119.883Zm-28.7,0a4.778,4.778,0,1,1,4.768,4.78A4.767,4.767,0,0,1,484.828,119.883Zm-28.738,0a4.784,4.784,0,1,1,4.779,4.78A4.786,4.786,0,0,1,456.09,119.883Zm-25.055,0a4.787,4.787,0,1,1,4.781,4.78A4.784,4.784,0,0,1,431.035,119.883Zm-28.693,0a4.771,4.771,0,1,1,4.762,4.78A4.762,4.762,0,0,1,402.342,119.883Zm-28.744,0a4.787,4.787,0,1,1,4.785,4.78A4.784,4.784,0,0,1,373.6,119.883Zm-28.721,0a4.784,4.784,0,1,1,4.793,4.78A4.786,4.786,0,0,1,344.877,119.883Zm-28.721,0a4.8,4.8,0,1,1,4.789,4.78A4.784,4.784,0,0,1,316.156,119.883Zm-28.717,0a4.784,4.784,0,1,1,4.811,4.78A4.792,4.792,0,0,1,287.439,119.883Zm-28.7,0a4.775,4.775,0,1,1,4.762,4.78A4.762,4.762,0,0,1,258.744,119.883Zm-28.744,0a4.787,4.787,0,1,1,4.785,4.78A4.788,4.788,0,0,1,230,119.883Zm-28.961,0a4.785,4.785,0,1,1,4.775,4.78A4.782,4.782,0,0,1,201.039,119.883Zm-28.7,0a4.771,4.771,0,1,1,4.764,4.78A4.764,4.764,0,0,1,172.34,119.883Zm-28.742,0a4.786,4.786,0,1,1,4.783,4.78A4.786,4.786,0,0,1,143.6,119.883Zm-28.723,0a4.787,4.787,0,1,1,4.795,4.78A4.786,4.786,0,0,1,114.875,119.883Zm-28.721,0a4.8,4.8,0,1,1,4.789,4.78A4.785,4.785,0,0,1,86.154,119.883Zm-28.717,0a4.787,4.787,0,1,1,4.813,4.78A4.793,4.793,0,0,1,57.438,119.883Zm-28.693,0a4.775,4.775,0,1,1,4.762,4.78A4.762,4.762,0,0,1,28.744,119.883ZM0,119.883a4.787,4.787,0,1,1,4.785,4.78A4.787,4.787,0,0,1,0,119.883Zm657.123-28.8a4.787,4.787,0,1,1,4.781,4.789A4.793,4.793,0,0,1,657.123,91.086Zm-28.693,0a4.772,4.772,0,1,1,4.762,4.789A4.771,4.771,0,0,1,628.43,91.086Zm-28.744,0a4.787,4.787,0,1,1,4.785,4.789A4.794,4.794,0,0,1,599.686,91.086Zm-28.721,0a4.784,4.784,0,1,1,4.789,4.789A4.795,4.795,0,0,1,570.965,91.086Zm-28.721,0a4.8,4.8,0,1,1,4.789,4.789A4.795,4.795,0,0,1,542.244,91.086Zm-28.717,0a4.784,4.784,0,1,1,4.807,4.789A4.8,4.8,0,0,1,513.527,91.086Zm-28.7,0a4.778,4.778,0,1,1,4.768,4.789A4.776,4.776,0,0,1,484.828,91.086Zm-28.738,0a4.784,4.784,0,1,1,4.779,4.789A4.8,4.8,0,0,1,456.09,91.086Zm-25.055,0a4.787,4.787,0,1,1,4.781,4.789A4.793,4.793,0,0,1,431.035,91.086Zm-28.693,0a4.771,4.771,0,1,1,4.762,4.789A4.771,4.771,0,0,1,402.342,91.086Zm-28.744,0a4.787,4.787,0,1,1,4.785,4.789A4.794,4.794,0,0,1,373.6,91.086Zm-28.721,0a4.784,4.784,0,1,1,4.793,4.789A4.8,4.8,0,0,1,344.877,91.086Zm-28.721,0a4.8,4.8,0,1,1,4.789,4.789A4.793,4.793,0,0,1,316.156,91.086Zm-28.717,0a4.784,4.784,0,1,1,4.811,4.789A4.8,4.8,0,0,1,287.439,91.086Zm-28.7,0a4.775,4.775,0,1,1,4.762,4.789A4.771,4.771,0,0,1,258.744,91.086Zm-28.744,0a4.787,4.787,0,1,1,4.785,4.789A4.8,4.8,0,0,1,230,91.086Zm-28.961,0a4.785,4.785,0,1,1,4.775,4.789A4.792,4.792,0,0,1,201.039,91.086Zm-28.7,0a4.772,4.772,0,1,1,4.764,4.789A4.773,4.773,0,0,1,172.34,91.086Zm-28.742,0a4.786,4.786,0,1,1,4.783,4.789A4.8,4.8,0,0,1,143.6,91.086Zm-28.723,0a4.787,4.787,0,1,1,4.795,4.789A4.8,4.8,0,0,1,114.875,91.086Zm-28.721,0a4.8,4.8,0,1,1,4.789,4.789A4.795,4.795,0,0,1,86.154,91.086Zm-28.717,0a4.787,4.787,0,1,1,4.813,4.789A4.8,4.8,0,0,1,57.438,91.086Zm-28.693,0a4.775,4.775,0,1,1,4.762,4.789A4.771,4.771,0,0,1,28.744,91.086ZM0,91.086a4.787,4.787,0,1,1,4.785,4.789A4.8,4.8,0,0,1,0,91.086ZM657.123,62.329a4.787,4.787,0,1,1,9.574,0,4.787,4.787,0,0,1-9.574,0Zm-28.693,0a4.771,4.771,0,1,1,4.762,4.763A4.794,4.794,0,0,1,628.43,62.329Zm-28.744,0a4.787,4.787,0,1,1,9.574,0,4.787,4.787,0,0,1-9.574,0Zm-28.721,0a4.784,4.784,0,1,1,9.568,0,4.784,4.784,0,0,1-9.568,0Zm-28.721,0a4.8,4.8,0,1,1,4.789,4.763A4.818,4.818,0,0,1,542.244,62.329Zm-28.717,0a4.784,4.784,0,1,1,9.568,0,4.784,4.784,0,0,1-9.568,0Zm-28.7,0a4.778,4.778,0,1,1,4.768,4.763A4.8,4.8,0,0,1,484.828,62.329Zm-28.738,0a4.784,4.784,0,1,1,9.568,0,4.784,4.784,0,0,1-9.568,0Zm-25.055,0a4.787,4.787,0,1,1,4.781,4.763A4.816,4.816,0,0,1,431.035,62.329Zm-28.693,0a4.771,4.771,0,1,1,4.762,4.763A4.794,4.794,0,0,1,402.342,62.329Zm-28.744,0a4.787,4.787,0,1,1,9.574,0,4.787,4.787,0,0,1-9.574,0Zm-28.721,0a4.784,4.784,0,1,1,9.568,0,4.784,4.784,0,0,1-9.568,0Zm-28.721,0a4.8,4.8,0,1,1,4.789,4.763A4.816,4.816,0,0,1,316.156,62.329Zm-28.717,0a4.784,4.784,0,1,1,9.568,0,4.784,4.784,0,0,1-9.568,0Zm-28.7,0a4.775,4.775,0,1,1,4.762,4.763A4.794,4.794,0,0,1,258.744,62.329Zm-28.744,0a4.787,4.787,0,1,1,9.574,0,4.787,4.787,0,0,1-9.574,0Zm-28.961,0a4.785,4.785,0,1,1,4.775,4.763A4.815,4.815,0,0,1,201.039,62.329Zm-28.7,0a4.771,4.771,0,1,1,4.764,4.763A4.8,4.8,0,0,1,172.34,62.329Zm-28.742,0a4.786,4.786,0,1,1,9.572,0,4.786,4.786,0,0,1-9.572,0Zm-28.723,0a4.787,4.787,0,1,1,9.574,0,4.787,4.787,0,0,1-9.574,0Zm-28.721,0a4.8,4.8,0,1,1,4.789,4.763A4.818,4.818,0,0,1,86.154,62.329Zm-28.717,0a4.787,4.787,0,1,1,9.574,0,4.787,4.787,0,0,1-9.574,0Zm-28.693,0a4.775,4.775,0,1,1,4.762,4.763A4.794,4.794,0,0,1,28.744,62.329ZM0,62.329a4.787,4.787,0,1,1,9.574,0,4.787,4.787,0,0,1-9.574,0ZM657.123,33.56a4.787,4.787,0,1,1,4.781,4.789A4.783,4.783,0,0,1,657.123,33.56Zm-28.693,0a4.772,4.772,0,1,1,4.762,4.789A4.761,4.761,0,0,1,628.43,33.56Zm-28.744,0a4.787,4.787,0,1,1,4.785,4.789A4.784,4.784,0,0,1,599.686,33.56Zm-28.721,0a4.784,4.784,0,1,1,4.789,4.789A4.785,4.785,0,0,1,570.965,33.56Zm-28.721,0a4.8,4.8,0,1,1,4.789,4.789A4.785,4.785,0,0,1,542.244,33.56Zm-28.717,0a4.784,4.784,0,1,1,4.807,4.789A4.791,4.791,0,0,1,513.527,33.56Zm-28.7,0a4.778,4.778,0,1,1,4.768,4.789A4.766,4.766,0,0,1,484.828,33.56Zm-28.738,0a4.784,4.784,0,1,1,4.779,4.789A4.785,4.785,0,0,1,456.09,33.56Zm-25.055,0a4.787,4.787,0,1,1,4.781,4.789A4.783,4.783,0,0,1,431.035,33.56Zm-28.693,0a4.771,4.771,0,1,1,4.762,4.789A4.761,4.761,0,0,1,402.342,33.56Zm-28.744,0a4.787,4.787,0,1,1,4.785,4.789A4.784,4.784,0,0,1,373.6,33.56Zm-28.721,0a4.784,4.784,0,1,1,4.793,4.789A4.785,4.785,0,0,1,344.877,33.56Zm-28.721,0a4.8,4.8,0,1,1,4.789,4.789A4.783,4.783,0,0,1,316.156,33.56Zm-28.717,0a4.784,4.784,0,1,1,4.811,4.789A4.792,4.792,0,0,1,287.439,33.56Zm-28.7,0a4.775,4.775,0,1,1,4.762,4.789A4.761,4.761,0,0,1,258.744,33.56ZM230,33.56a4.787,4.787,0,1,1,4.785,4.789A4.787,4.787,0,0,1,230,33.56Zm-28.961,0a4.785,4.785,0,1,1,4.775,4.789A4.782,4.782,0,0,1,201.039,33.56Zm-28.7,0a4.772,4.772,0,1,1,4.764,4.789A4.763,4.763,0,0,1,172.34,33.56Zm-28.742,0a4.786,4.786,0,1,1,4.783,4.789A4.786,4.786,0,0,1,143.6,33.56Zm-28.723,0a4.787,4.787,0,1,1,4.795,4.789A4.786,4.786,0,0,1,114.875,33.56Zm-28.721,0a4.8,4.8,0,1,1,4.789,4.789A4.785,4.785,0,0,1,86.154,33.56Zm-28.717,0a4.787,4.787,0,1,1,4.813,4.789A4.792,4.792,0,0,1,57.438,33.56Zm-28.693,0a4.775,4.775,0,1,1,4.762,4.789A4.761,4.761,0,0,1,28.744,33.56ZM0,33.56a4.787,4.787,0,1,1,4.785,4.789A4.786,4.786,0,0,1,0,33.56ZM657.123,4.789A4.787,4.787,0,1,1,661.9,9.573,4.8,4.8,0,0,1,657.123,4.789Zm-28.693,0a4.772,4.772,0,1,1,4.762,4.784A4.779,4.779,0,0,1,628.43,4.789Zm-28.744,0a4.787,4.787,0,1,1,4.785,4.784A4.8,4.8,0,0,1,599.686,4.789Zm-28.721,0a4.784,4.784,0,1,1,4.789,4.784A4.8,4.8,0,0,1,570.965,4.789Zm-28.721,0a4.8,4.8,0,1,1,4.789,4.784A4.8,4.8,0,0,1,542.244,4.789Zm-28.717,0a4.784,4.784,0,1,1,4.807,4.784A4.808,4.808,0,0,1,513.527,4.789Zm-28.7,0A4.778,4.778,0,1,1,489.6,9.573,4.784,4.784,0,0,1,484.828,4.789Zm-28.738,0a4.784,4.784,0,1,1,4.779,4.784A4.8,4.8,0,0,1,456.09,4.789Zm-25.055,0a4.787,4.787,0,1,1,4.781,4.784A4.8,4.8,0,0,1,431.035,4.789Zm-28.693,0A4.771,4.771,0,1,1,407.1,9.573,4.779,4.779,0,0,1,402.342,4.789Zm-28.744,0a4.787,4.787,0,1,1,4.785,4.784A4.8,4.8,0,0,1,373.6,4.789Zm-28.721,0a4.784,4.784,0,1,1,4.793,4.784A4.8,4.8,0,0,1,344.877,4.789Zm-28.721,0a4.8,4.8,0,1,1,4.789,4.784A4.8,4.8,0,0,1,316.156,4.789Zm-28.717,0a4.784,4.784,0,1,1,4.811,4.784A4.809,4.809,0,0,1,287.439,4.789Zm-28.7,0a4.775,4.775,0,1,1,4.762,4.784A4.779,4.779,0,0,1,258.744,4.789ZM230,4.789a4.787,4.787,0,1,1,4.785,4.784A4.805,4.805,0,0,1,230,4.789Zm-28.961,0a4.785,4.785,0,1,1,4.775,4.784A4.8,4.8,0,0,1,201.039,4.789Zm-28.7,0A4.772,4.772,0,1,1,177.1,9.573,4.78,4.78,0,0,1,172.34,4.789Zm-28.742,0a4.786,4.786,0,1,1,4.783,4.784A4.8,4.8,0,0,1,143.6,4.789Zm-28.723,0a4.787,4.787,0,1,1,4.795,4.784A4.8,4.8,0,0,1,114.875,4.789Zm-28.721,0a4.8,4.8,0,1,1,4.789,4.784A4.8,4.8,0,0,1,86.154,4.789Zm-28.717,0A4.787,4.787,0,1,1,62.25,9.573,4.81,4.81,0,0,1,57.438,4.789Zm-28.693,0a4.775,4.775,0,1,1,4.762,4.784A4.779,4.779,0,0,1,28.744,4.789ZM0,4.789A4.787,4.787,0,1,1,4.785,9.573,4.8,4.8,0,0,1,0,4.789Z" transform="translate(1478.697 243.456) rotate(180)"/>
  </g>
</svg>
