<svg xmlns="http://www.w3.org/2000/svg" xmlns:xlink="http://www.w3.org/1999/xlink" width="35.978" height="36.736" viewBox="0 0 35.978 36.736">
  <defs>
    <style>
      .cls-1, .cls-3, .cls-5, .cls-9 {
        fill: none;
      }

      .cls-1, .cls-4, .cls-5, .cls-6 {
        stroke: #f39562;
      }

      .cls-1 {
        stroke-width: 0.5px;
      }

      .cls-2 {
        clip-path: url(#clip-path);
      }

      .cls-4 {
        fill: #f39562;
      }

      .cls-5 {
        stroke-width: 2px;
      }

      .cls-6 {
        fill: #fff;
      }

      .cls-7, .cls-8 {
        stroke: none;
      }

      .cls-8 {
        fill: #f39562;
      }
    </style>
    <clipPath id="clip-path">
      <rect id="Rectangle_1428" data-name="Rectangle 1428" class="cls-1" width="34.672" height="15.279"/>
    </clipPath>
  </defs>
  <g id="Group_501" data-name="Group 501" transform="translate(6046.222 4631.513)">
    <g id="Mask_Group_17" data-name="Mask Group 17" class="cls-2" transform="matrix(-1, 0.017, -0.017, -1, -6011.289, -4616.236)">
      <g id="Path_427" data-name="Path 427" class="cls-3" transform="translate(1.763 -14.692)">
        <path class="cls-7" d="M14.986,0c8.276,0,14.986,6.446,14.986,14.4S23.262,28.8,14.986,28.8,0,22.35,0,14.4,6.709,0,14.986,0Z"/>
        <path class="cls-8" d="M 14.98551654815674 2.5 C 11.63170623779297 2.5 8.483636856079102 3.750020980834961 6.1212158203125 6.019800186157227 C 3.786037445068359 8.263399124145508 2.499996185302734 11.2387809753418 2.499996185302734 14.39785003662109 C 2.499996185302734 17.55691909790039 3.786037445068359 20.53229904174805 6.1212158203125 22.77589988708496 C 8.483636856079102 25.04568099975586 11.63170623779297 26.29570007324219 14.98551654815674 26.29570007324219 C 18.33932685852051 26.29570007324219 21.48739624023438 25.04568099975586 23.84981536865234 22.77589988708496 C 26.18499755859375 20.53229904174805 27.47103691101074 17.55691909790039 27.47103691101074 14.39785003662109 C 27.47103691101074 11.2387809753418 26.18499755859375 8.263399124145508 23.84981536865234 6.019800186157227 C 21.48739624023438 3.750020980834961 18.33932685852051 2.5 14.98551654815674 2.5 M 14.98551654815674 0 C 23.26178741455078 0 29.97103691101074 6.446140289306641 29.97103691101074 14.39785003662109 C 29.97103691101074 22.34955978393555 23.26178741455078 28.79570007324219 14.98551654815674 28.79570007324219 C 6.709245681762695 28.79570007324219 -3.814697265625e-06 22.34955978393555 -3.814697265625e-06 14.39785003662109 C -3.814697265625e-06 6.446140289306641 6.709245681762695 0 14.98551654815674 0 Z"/>
      </g>
    </g>
    <g id="Rectangle_1426" data-name="Rectangle 1426" class="cls-4" transform="translate(-6045.504 -4617.107)">
      <rect class="cls-7" width="7.64" height="14.104"/>
      <rect class="cls-9" x="0.5" y="0.5" width="6.64" height="13.104"/>
    </g>
    <g id="Rectangle_1427" data-name="Rectangle 1427" class="cls-4" transform="translate(-6017.884 -4617.107)">
      <rect class="cls-7" width="7.64" height="14.104"/>
      <rect class="cls-9" x="0.5" y="0.5" width="6.64" height="13.104"/>
    </g>
    <path id="Path_426" data-name="Path 426" class="cls-5" d="M-6038.5-4586.261v6.015l11.019,1.918" transform="translate(-3.184 -18.659)"/>
    <g id="Ellipse_377" data-name="Ellipse 377" class="cls-6" transform="translate(-6032.576 -4598.89)">
      <circle class="cls-7" cx="2.057" cy="2.057" r="2.057"/>
      <circle class="cls-9" cx="2.057" cy="2.057" r="1.557"/>
    </g>
  </g>
</svg>
