<svg xmlns="http://www.w3.org/2000/svg" width="55.541" height="88.81" viewBox="0 0 55.541 88.81">
  <defs>
    <style>
      .cls-1 {
        fill: #f39562;
      }

      .cls-2 {
        fill: #fff;
      }
    </style>
  </defs>
  <g id="Group_2066" data-name="Group 2066" transform="translate(-927.068 -3028.094)">
    <g id="Group_2065" data-name="Group 2065">
      <path id="Union_255" data-name="Union 255" class="cls-1" d="M3.15,43.013A30.287,30.287,0,0,1,.7,35.979a13.34,13.34,0,0,1-.684-4.17l.074-.053Q0,30.591,0,29.4C0,13.163,12.433,0,27.77,0s27.77,13.163,27.77,29.4q0,1.081-.073,2.142a.578.578,0,0,1,.072.268,33.457,33.457,0,0,1-4.062,13.568C42.59,62.33,24.994,88.81,24.994,88.81S9.868,60.1,3.15,43.013Z" transform="translate(927.068 3028.094)"/>
    </g>
    <ellipse id="Ellipse_520" data-name="Ellipse 520" class="cls-2" cx="11.918" cy="12.929" rx="11.918" ry="12.929" transform="translate(943.519 3043.279)"/>
  </g>
</svg>
