<svg xmlns="http://www.w3.org/2000/svg" width="36.866" height="40.442" viewBox="0 0 36.866 40.442">
  <defs>
    <style>
      .cls-1 {
        fill: #f2a074;
      }
    </style>
  </defs>
  <g id="Group_549" data-name="Group 549" transform="translate(-428 -1336.909)">
    <g id="Group_547" data-name="Group 547" transform="translate(428 1336.909)">
      <g id="Group_546" data-name="Group 546" transform="translate(0 0)">
        <path id="Path_482" data-name="Path 482" class="cls-1" d="M140.834,539.1l2.487-.962a14.653,14.653,0,0,0-.431-3.521l-2.65-.325a12.025,12.025,0,0,0-.594-1.466l1.673-2.074a14.9,14.9,0,0,0-2.139-2.832l-2.453,1.042a12.442,12.442,0,0,0-1.247-.975l.412-2.632a14.659,14.659,0,0,0-3.269-1.381l-1.6,2.128c-.38-.078-.766-.14-1.159-.182-.136-.014-.271-.023-.405-.034L128.5,523.4a14.7,14.7,0,0,0-3.521.431l-.326,2.651a12.2,12.2,0,0,0-1.465.594L121.11,525.4a14.86,14.86,0,0,0-2.832,2.139L119.322,530a12.11,12.11,0,0,0-.975,1.244l-2.632-.411a14.639,14.639,0,0,0-1.381,3.269l2.128,1.6c-.079.38-.14.765-.182,1.159-.016.136-.023.27-.034.406l-2.488.96a14.747,14.747,0,0,0,.431,3.521l2.65.325a12.28,12.28,0,0,0,.594,1.465l-1.673,2.074a14.82,14.82,0,0,0,2.14,2.832l2.453-1.042a12,12,0,0,0,1.245.975l-.412,2.633a14.7,14.7,0,0,0,3.269,1.381l1.6-2.129c.38.078.767.14,1.161.183.135.015.27.023.4.033l.961,2.49a14.724,14.724,0,0,0,3.521-.431l.325-2.65a12.291,12.291,0,0,0,1.466-.594l2.074,1.671a14.87,14.87,0,0,0,2.832-2.138l-1.041-2.453a12.707,12.707,0,0,0,.974-1.245l2.631.412a14.688,14.688,0,0,0,1.381-3.27l-2.127-1.6c.077-.38.14-.766.183-1.16C140.816,539.372,140.824,539.237,140.834,539.1Zm-5.914-.23a6.418,6.418,0,1,1-5.693-7.068A6.418,6.418,0,0,1,134.921,538.872Z" transform="translate(-113.757 -523.402)"/>
      </g>
    </g>
    <g id="Group_548" data-name="Group 548" transform="translate(450.264 1362.749)">
      <g id="Group_546-2" data-name="Group 546" transform="translate(0 0)">
        <path id="Path_482-2" data-name="Path 482" class="cls-1" d="M127.13,531.156l1.229-.475a7.237,7.237,0,0,0-.213-1.739l-1.309-.16a5.935,5.935,0,0,0-.293-.724l.826-1.024a7.356,7.356,0,0,0-1.057-1.4l-1.211.515a6.15,6.15,0,0,0-.616-.482l.2-1.3a7.242,7.242,0,0,0-1.615-.682l-.791,1.051c-.188-.038-.378-.069-.572-.09-.067-.007-.134-.011-.2-.017l-.475-1.229a7.257,7.257,0,0,0-1.739.213l-.161,1.309a6.038,6.038,0,0,0-.724.293l-1.024-.826a7.339,7.339,0,0,0-1.4,1.056l.515,1.212a5.991,5.991,0,0,0-.482.615l-1.3-.2a7.23,7.23,0,0,0-.682,1.615l1.051.791q-.058.281-.09.572c-.008.067-.012.133-.017.2l-1.229.474a7.284,7.284,0,0,0,.213,1.739l1.309.16a6.073,6.073,0,0,0,.293.723l-.826,1.025a7.32,7.32,0,0,0,1.057,1.4l1.212-.515a5.929,5.929,0,0,0,.615.481l-.2,1.3a7.264,7.264,0,0,0,1.614.682l.792-1.051c.188.038.379.069.573.09.067.008.133.011.2.016l.475,1.229a7.272,7.272,0,0,0,1.739-.213l.161-1.309a6.083,6.083,0,0,0,.724-.293l1.024.825a7.34,7.34,0,0,0,1.4-1.056l-.514-1.212a6.286,6.286,0,0,0,.481-.615l1.3.2a7.254,7.254,0,0,0,.682-1.615l-1.051-.791c.038-.188.069-.378.09-.573C127.121,531.289,127.125,531.223,127.13,531.156Zm-2.921-.114a3.17,3.17,0,1,1-2.812-3.491A3.17,3.17,0,0,1,124.209,531.042Z" transform="translate(-113.757 -523.402)"/>
      </g>
    </g>
  </g>
</svg>
