<svg xmlns="http://www.w3.org/2000/svg" width="36" height="31" viewBox="0 0 36 31">
  <defs>
    <style>
      .cls-1 {
        fill: #f39562;
      }

      .cls-1, .cls-3 {
        stroke: #f39562;
      }

      .cls-2 {
        fill: #f4f4f4;
      }

      .cls-3 {
        fill: #fff;
        stroke-width: 2px;
      }

      .cls-4, .cls-6 {
        fill: none;
      }

      .cls-4 {
        stroke: #f4f4f4;
      }

      .cls-5, .cls-7 {
        stroke: none;
      }

      .cls-7 {
        fill: #f4f4f4;
      }
    </style>
  </defs>
  <g id="Group_507" data-name="Group 507" transform="translate(-950 -1071)">
    <g id="Rectangle_1390" data-name="Rectangle 1390" class="cls-1" transform="translate(952 1079)">
      <rect class="cls-5" width="32" height="23"/>
      <rect class="cls-6" x="0.5" y="0.5" width="31" height="22"/>
    </g>
    <g id="Union_157" data-name="Union 157" class="cls-2" transform="translate(-11254.498 -2685.677)">
      <path class="cls-5" d="M 12222.4990234375 3778.220458984375 L 12220.498046875 3775.81982421875 L 12220.498046875 3771.5 L 12224.4990234375 3771.5 L 12224.4990234375 3775.820068359375 L 12222.4990234375 3778.220458984375 Z"/>
      <path class="cls-7" d="M 12222.4990234375 3777.439453125 L 12222.8642578125 3777.0009765625 L 12222.1337890625 3777.0009765625 L 12222.4990234375 3777.439453125 M 12223.9990234375 3775.0009765625 L 12223.9990234375 3772 L 12220.998046875 3772 L 12220.998046875 3775.0009765625 L 12223.9990234375 3775.0009765625 M 12222.4990234375 3779.00146484375 L 12219.998046875 3776.0009765625 L 12224.9990234375 3776.0009765625 L 12222.4990234375 3779.00146484375 Z M 12224.9990234375 3776.0009765625 L 12219.998046875 3776.0009765625 L 12219.998046875 3771 L 12224.9990234375 3771 L 12224.9990234375 3776.0009765625 Z"/>
    </g>
    <g id="Rectangle_1393" data-name="Rectangle 1393" class="cls-3" transform="translate(962 1071)">
      <rect class="cls-5" width="11" height="7"/>
      <rect class="cls-6" x="1" y="1" width="9" height="5"/>
    </g>
    <line id="Line_12" data-name="Line 12" class="cls-4" x2="32" transform="translate(952 1087)"/>
    <g id="Rectangle_1391" data-name="Rectangle 1391" class="cls-1" transform="translate(950 1076)">
      <rect class="cls-5" width="36" height="11"/>
      <rect class="cls-6" x="0.5" y="0.5" width="35" height="10"/>
    </g>
  </g>
</svg>
